# xmcd
#
# Track frame offsets: 
#        150
#        30931
#        62046
#        86414
#        108569
#        134423
#        160752
#        180629
#        198256
#        223561
#        251874
#        278191
#
# Disc length: 3969 seconds
#
# Revision: 2
# Processed by: cddbd v1.5.2PL0 Copyright (c) Steve Scherf et al.
# Submitted via: ExactAudioCopy v0.95a5
#
DISCID=a60f7f0c
DTITLE=Various Artist - Jazz4Chillin'
DYEAR=2002
DGENRE=Jazz
TTITLE0=Marcus Printup/The Weeping Prince
TTITLE1=Lyambiko/Some Other Time
TTITLE2=Roy Powell/Borrowed Time
TTITLE3=Harry Allen Quartet/This Time the Dream's on Me
TTITLE4=Karl Schloz/It Might as Well Be Spring
TTITLE5=Eric Reed -  Wycliffe Gordon/Embraceable You
TTITLE6=Barry Harris -  Clark Terry -  Dave Glasser -  Roy Hargrove/Chari
TTITLE6=se
TTITLE7=Caterina Valente -  Catherine Michel/The Way We Were
TTITLE8=David Gibson/Maya
TTITLE9=Masahiko Sato -  Shinichi Kato/Clouds in Green
TTITLE10=Joachim Schoenecker/Better Than Words
TTITLE11=Dan Barrett/Dream a Little Dream of Me
EXTD=YEAR: 2002
EXTT0=
EXTT1=
EXTT2=
EXTT3=
EXTT4=
EXTT5=
EXTT6=
EXTT7=
EXTT8=
EXTT9=
EXTT10=
EXTT11=
PLAYORDER=
